<?xml version="1.0" encoding="UTF-8"?>
<svg version="1.1" xmlns="http://www.w3.org/2000/svg" width="270" height="229">
<path d="M0 0 C3.60293094 0.25042794 5.43467886 1.05363092 8.53222656 2.85986328 C9.50546875 3.41931641 10.47871094 3.97876953 11.48144531 4.55517578 C12.98384766 5.44462891 12.98384766 5.44462891 14.51660156 6.35205078 C15.99580078 7.20669922 15.99580078 7.20669922 17.50488281 8.07861328 C23.79880875 11.727266 30.03795918 15.46826907 36.26660156 19.22705078 C35.68477269 25.17327427 34.45541133 30.52952558 32.64941406 36.21533203 C32.26268021 37.45285469 32.26268021 37.45285469 31.86813354 38.71537781 C31.32524266 40.44505745 30.77881486 42.17363061 30.22900391 43.90112305 C29.38960333 46.54584668 28.56779422 49.19562069 27.74707031 51.84619141 C27.21557009 53.53207026 26.68305355 55.21762911 26.14941406 56.90283203 C25.7836174 58.08876701 25.7836174 58.08876701 25.41043091 59.29866028 C24.2155526 63.00619799 23.29052353 65.72157638 20.26660156 68.22705078 C18.26660156 68.28955078 18.26660156 68.28955078 16.26660156 67.22705078 C13.60557976 62.86297502 12.00148007 58.01862 10.26660156 53.22705078 C5.6774835 54.58858129 1.87563937 56.47120937 -2.23339844 58.91455078 C-6.8289863 61.60542034 -11.44626065 64.13526583 -16.23339844 66.47705078 C-22.26416522 69.44212188 -28.15849543 72.61233606 -34.04589844 75.85205078 C-43.46283864 81.03297996 -52.96570158 86.03079054 -62.52172852 90.95019531 C-63.52099365 91.46565918 -64.52025879 91.98112305 -65.54980469 92.51220703 C-66.87153687 93.19101929 -66.87153687 93.19101929 -68.2199707 93.88354492 C-70.77836909 95.251089 -73.25867159 96.71411613 -75.73339844 98.22705078 C-75.58902344 99.38205078 -75.44464844 100.53705078 -75.29589844 101.72705078 C-75.20953125 102.45279297 -75.12316406 103.17853516 -75.03417969 103.92626953 C-74.83709808 105.43381583 -74.60640974 106.93743311 -74.33886719 108.43408203 C-73.98339844 110.53955078 -73.98339844 110.53955078 -73.73339844 114.22705078 C-76.63182514 117.91606068 -80.99162422 119.79318515 -85.04589844 121.97705078 C-86.16641602 122.61320312 -86.16641602 122.61320312 -87.30957031 123.26220703 C-88.04369141 123.65794922 -88.7778125 124.05369141 -89.53417969 124.46142578 C-90.19587158 124.82461914 -90.85756348 125.1878125 -91.53930664 125.56201172 C-94.50289595 126.46028893 -96.75081302 125.8920346 -99.73339844 125.22705078 C-101.17961661 121.16340851 -102.6025705 117.09252264 -104.00585938 113.01391602 C-104.48479686 111.63190816 -104.96967603 110.25194279 -105.4609375 108.87426758 C-112.16503175 90.04123546 -112.16503175 90.04123546 -108.33496094 80.88330078 C-104.70622662 77.17828677 -100.69918863 75.07415488 -96.10839844 72.72705078 C-94.1109691 71.67242673 -92.1135747 70.61773651 -90.11621094 69.56298828 C-89.06981445 69.01739258 -88.02341797 68.47179687 -86.9453125 67.90966797 C-82.68232023 65.67642513 -78.44957794 63.38905038 -74.21630859 61.10009766 C-70.93817374 59.32759761 -67.65661051 57.56160287 -64.37402344 55.79736328 C-56.75737355 51.702799 -49.14366034 47.60278985 -41.53051758 43.50170898 C-36.46187615 40.77167074 -31.3924499 38.04312432 -26.32003784 35.32009888 C-24.51556417 34.35130965 -22.71135548 33.38202873 -20.90722656 32.41259766 C-18.63692097 31.19286485 -16.36611286 29.97406679 -14.09472656 28.75634766 C-13.07185547 28.2065625 -12.04898438 27.65677734 -10.99511719 27.09033203 C-10.09752686 26.60862549 -9.19993652 26.12691895 -8.27514648 25.63061523 C-6.49975782 24.6502378 -4.75248732 23.61795591 -3.02954102 22.5480957 C-0.73339844 21.22705078 -0.73339844 21.22705078 1.26660156 21.22705078 C0.90566406 20.20224609 0.54472656 19.17744141 0.17285156 18.12158203 C-0.29629974 16.76104326 -0.76502745 15.40035838 -1.23339844 14.03955078 C-1.471875 13.36601562 -1.71035156 12.69248047 -1.95605469 11.99853516 C-3.21423339 8.31386896 -4.1451492 5.13133033 -3.73339844 1.22705078 C-2.73339844 0.22705078 -2.73339844 0.22705078 0 0 Z " fill="#3231C8" transform="translate(193.7333984375,13.77294921875)"/>
<path d="M0 0 C2.86534897 2.16760506 3.38746292 4.49834175 4.52514648 7.87915039 C4.74144714 8.51848511 4.9577478 9.15781982 5.18060303 9.81652832 C5.63486595 11.17251614 6.08157082 12.53105602 6.52124023 13.8918457 C7.18802769 15.94520418 7.88570335 17.98602089 8.58764648 20.02758789 C14.16053168 36.63367019 14.16053168 36.63367019 10.41577148 44.82055664 C7.38179052 48.08016594 4.37677123 49.88902047 0.44702148 51.91040039 C-0.32561035 52.32378662 -1.09824219 52.73717285 -1.89428711 53.16308594 C-3.63620867 54.09331179 -5.38172584 55.01682511 -7.13012695 55.93481445 C-10.30386651 57.60492465 -13.46432696 59.29845185 -16.62329102 60.99633789 C-20.79280902 63.23687659 -24.9640817 65.47396271 -29.13925171 67.70394897 C-37.1366225 71.9754625 -45.11223474 76.28632592 -53.08105469 80.61083984 C-58.3861013 83.48882209 -63.69478848 86.35984444 -69.01000977 89.21899414 C-69.5940155 89.53316788 -70.17802124 89.84734161 -70.77972412 90.17103577 C-73.59897554 91.68740684 -76.41871902 93.20285518 -79.23901367 94.71728516 C-80.25914551 95.26570068 -81.27927734 95.81411621 -82.33032227 96.37915039 C-83.78414307 97.16032227 -83.78414307 97.16032227 -85.26733398 97.95727539 C-88.64293536 99.79388655 -91.98372856 101.68845019 -95.31298828 103.60766602 C-97.05297852 104.47290039 -97.05297852 104.47290039 -99.05297852 104.47290039 C-98.77583008 105.31852539 -98.49868164 106.16415039 -98.21313477 107.03540039 C-96.24153 113.20982102 -94.5603261 119.00421867 -94.05297852 125.47290039 C-100.55766649 126.09651894 -104.5094998 124.12604956 -110.11547852 120.97290039 C-110.94096191 120.52164795 -111.76644531 120.07039551 -112.61694336 119.60546875 C-114.29587343 118.68389096 -115.97105474 117.7554493 -117.64233398 116.82006836 C-119.87507097 115.57232249 -122.11937735 114.34929108 -124.36938477 113.13305664 C-133.91393755 107.89002329 -133.91393755 107.89002329 -135.05297852 104.47290039 C-134.64846802 102.45518494 -134.64846802 102.45518494 -133.8972168 100.125 C-133.62007843 99.25076889 -133.34294006 98.37653778 -133.05740356 97.47581482 C-132.74914642 96.5351265 -132.44088928 95.59443817 -132.12329102 94.62524414 C-131.81350311 93.65760635 -131.50371521 92.68996857 -131.18453979 91.69300842 C-130.19061068 88.59607818 -129.18424585 85.50334085 -128.17797852 82.41040039 C-127.50663052 80.32145662 -126.83604797 78.23226668 -126.16625977 76.14282227 C-124.93777492 72.32424368 -123.70872873 68.50587297 -122.4675293 64.69140625 C-122.21802521 63.92324081 -121.96852112 63.15507538 -121.7114563 62.3636322 C-121.05297852 60.47290039 -121.05297852 60.47290039 -120.05297852 58.47290039 C-117.74047852 58.22290039 -117.74047852 58.22290039 -115.05297852 58.47290039 C-112.43912346 61.29586386 -111.38026436 64.05034209 -110.36547852 67.72290039 C-110.11411133 68.61493164 -109.86274414 69.50696289 -109.60375977 70.42602539 C-109.42200195 71.10149414 -109.24024414 71.77696289 -109.05297852 72.47290039 C-105.41092394 71.88411838 -102.56407026 70.89236857 -99.30688477 69.17211914 C-98.39874023 68.69581055 -97.4905957 68.21950195 -96.55493164 67.72875977 C-95.58491211 67.21120117 -94.61489258 66.69364258 -93.61547852 66.16040039 C-92.08890625 65.35505859 -92.08890625 65.35505859 -90.53149414 64.53344727 C-82.76354201 60.42156649 -75.04682399 56.21715239 -67.34423828 51.984375 C-60.62818497 48.30277362 -53.85454263 44.74365765 -47.05297852 41.22290039 C-38.59313302 36.84268303 -30.26110376 32.30957731 -22.05297852 27.47290039 C-22.20637695 26.41973633 -22.35977539 25.36657227 -22.51782227 24.28149414 C-22.92737005 21.36682924 -23.30040769 18.46105801 -23.61547852 15.53540039 C-23.69926758 14.76325195 -23.78305664 13.99110352 -23.86938477 13.19555664 C-23.9299707 12.62708008 -23.99055664 12.05860352 -24.05297852 11.47290039 C-19.47448705 7.78777311 -14.63140096 5.09505632 -9.36547852 2.53540039 C-8.71184326 2.20467529 -8.05820801 1.8739502 -7.38476562 1.53320312 C-2.6808543 -0.68830591 -2.6808543 -0.68830591 0 0 Z " fill="#3231C8" transform="translate(171.052978515625,89.527099609375)"/>
<path d="M0 0 C3.34952785 7.96841125 6.10186794 16.0877641 8.75 24.3125 C9.16121094 25.56095703 9.57242188 26.80941406 9.99609375 28.09570312 C10.38410156 29.29775391 10.77210938 30.49980469 11.171875 31.73828125 C11.6992627 33.36310425 11.6992627 33.36310425 12.23730469 35.02075195 C12.95662885 37.83058319 13.15616304 40.11799105 13 43 C3.38517045 48.6568452 -6.42655015 53.92320977 -16.27236938 59.16421509 C-24.56088802 63.5799809 -32.78165071 68.0920227 -40.9375 72.75 C-50.81039887 78.38561433 -60.80397863 83.76482482 -70.93017578 88.93212891 C-72.70868153 89.84970193 -74.46432933 90.81134165 -76.21484375 91.78125 C-81.94418729 94.28834002 -88.49730995 93.7878839 -94.375 91.9375 C-100.5232389 87.39951414 -103.95216389 82.34811779 -106 75 C-105.9609375 73 -105.9609375 73 -105 71 C-102.90647504 69.53234199 -100.94030438 68.36437578 -98.6875 67.1875 C-97.99382324 66.81133545 -97.30014648 66.4351709 -96.58544922 66.04760742 C-94.06389608 64.68513374 -91.53175517 63.34341677 -89 62 C-86.87310067 60.85788235 -84.74683712 59.71458022 -82.62109375 58.5703125 C-77.86979074 56.01606592 -73.11445371 53.46958764 -68.35546875 50.9296875 C-61.20778592 47.11442878 -54.07090083 43.27939761 -46.9375 39.4375 C-45.89867676 38.87844971 -44.85985352 38.31939941 -43.78955078 37.7434082 C-41.82142065 36.68341269 -39.85487536 35.62046783 -37.89013672 34.55419922 C-35.88531516 33.47608686 -33.87049743 32.41643825 -31.84814453 31.37158203 C-30.34743408 30.58630127 -30.34743408 30.58630127 -28.81640625 29.78515625 C-27.9147876 29.32117432 -27.01316895 28.85719238 -26.08422852 28.37915039 C-23.69218771 27.10431821 -23.69218771 27.10431821 -23 24 C-23.53194603 21.45981734 -23.53194603 21.45981734 -24.4375 18.8125 C-24.72496094 17.91144531 -25.01242188 17.01039062 -25.30859375 16.08203125 C-25.53675781 15.39496094 -25.76492187 14.70789063 -26 14 C-22.11261161 9.72539128 -18.03640307 6.9798231 -13 4.1875 C-11.95199219 3.57745117 -11.95199219 3.57745117 -10.8828125 2.95507812 C-10.19960937 2.57158203 -9.51640625 2.18808594 -8.8125 1.79296875 C-8.20019531 1.4477417 -7.58789062 1.10251465 -6.95703125 0.74682617 C-4.55116956 -0.17127898 -2.55323442 -0.12650417 0 0 Z " fill="#3231C7" transform="translate(213,107)"/>
<path d="M0 0 C5.31946545 4.03430048 8.33545096 9.26661201 9.421875 15.78515625 C8.859375 19.41015625 8.859375 19.41015625 7.42797852 20.66235352 C6.78787842 21.03416748 6.14777832 21.40598145 5.48828125 21.7890625 C4.39422974 22.42811523 4.39422974 22.42811523 3.27807617 23.08007812 C-1.03334795 25.45099148 -5.38665626 27.72924185 -9.765625 29.97265625 C-18.39519794 34.43403991 -26.96368985 38.9877599 -35.4699707 43.67993164 C-40.20357436 46.2848342 -44.95454856 48.8475028 -49.7485199 51.33927917 C-52.34757453 52.69030903 -54.94171708 54.05064989 -57.53604126 55.41073608 C-58.80740704 56.07352852 -60.08130479 56.73148806 -61.35775757 57.38442993 C-63.14191769 58.2975089 -64.91689412 59.22846572 -66.69140625 60.16015625 C-67.71919189 60.69125 -68.74697754 61.22234375 -69.8059082 61.76953125 C-72.24864009 63.18752405 -72.24864009 63.18752405 -73.03979492 65.4296875 C-73.18778689 68.33649339 -72.08813645 70.67909384 -71.140625 73.41015625 C-70.703125 76.03515625 -70.703125 76.03515625 -71.140625 78.41015625 C-74.92244221 81.86904789 -79.15278217 84.26071553 -83.640625 86.66015625 C-84.29160156 87.02367188 -84.94257812 87.3871875 -85.61328125 87.76171875 C-89.25748755 89.72001951 -91.97956169 90.89027894 -96.140625 90.41015625 C-99.69642611 82.86631215 -102.34362711 75.15817248 -104.890625 67.22265625 C-105.30183594 65.97806641 -105.71304688 64.73347656 -106.13671875 63.45117188 C-106.52472656 62.24783203 -106.91273437 61.04449219 -107.3125 59.8046875 C-107.6640918 58.72034424 -108.01568359 57.63600098 -108.37792969 56.51879883 C-109.15295093 53.35991744 -109.28292686 50.64873981 -109.140625 47.41015625 C-97.81777089 41.22408563 -86.4882537 35.05068011 -75.140625 28.91015625 C-67.42559718 24.73486229 -59.71636344 20.54924856 -52.015625 16.34765625 C-51.12891113 15.86449951 -50.24219727 15.38134277 -49.32861328 14.88354492 C-44.5501425 12.27817162 -39.77904 9.66015299 -35.015625 7.02734375 C-34.01160645 6.4744165 -33.00758789 5.92148926 -31.97314453 5.35180664 C-30.04495414 4.28966247 -28.11874332 3.22391427 -26.19482422 2.15405273 C-25.32873535 1.67782471 -24.46264648 1.20159668 -23.5703125 0.7109375 C-22.80960449 0.28981689 -22.04889648 -0.13130371 -21.26513672 -0.56518555 C-14.38724403 -3.88241326 -6.65013922 -3.71077769 0 0 Z " fill="#3232C8" transform="translate(150.140625,31.58984375)"/>
<path d="M0 0 C3.66268937 0.26126966 5.53624126 1.12283947 8.68164062 2.97192383 C9.67292969 3.54491211 10.66421875 4.11790039 11.68554688 4.70825195 C12.70519531 5.31475586 13.72484375 5.92125977 14.77539062 6.54614258 C16.80598103 7.73086758 18.83721237 8.91449484 20.86914062 10.09692383 C21.81015625 10.64815918 22.75117188 11.19939453 23.72070312 11.76733398 C26.52621461 13.37760749 29.35384224 14.84790815 32.27539062 16.23364258 C29.89581101 17.08349244 28.74092213 17.43247328 26.37304688 16.42114258 C24.31029841 15.25340415 22.40694648 13.96275073 20.46289062 12.60864258 C16.56293617 10.12685338 13.92149767 9.97552552 9.27539062 10.23364258 C5.83789062 9.23364258 5.83789062 9.23364258 3.27539062 8.23364258 C3.20476118 11.27070867 3.21005374 13.95269399 3.90039062 16.92114258 C4.27539062 19.23364258 4.27539062 19.23364258 2.27539062 22.23364258 C1.61539063 21.90364258 0.95539063 21.57364258 0.27539062 21.23364258 C-0.05794271 18.90030924 -0.39127604 16.56697591 -0.72460938 14.23364258 C-1.21232105 12.84654861 -1.73391611 11.47094562 -2.28710938 10.10864258 C-3.51478429 7.02448363 -4.13234513 4.59746258 -3.72460938 1.23364258 C-2.72460938 0.23364258 -2.72460938 0.23364258 0 0 Z " fill="#302FBA" transform="translate(193.724609375,13.766357421875)"/>
<path d="M0 0 C4.15159033 6.22738549 5.3103101 13.19632132 5.49609375 20.578125 C4.63934498 24.76067803 2.64384861 27.77688905 -0.79614258 30.33642578 C-2.86917686 31.62010182 -4.97270318 32.79204686 -7.125 33.9375 C-8.21748047 34.55334961 -8.21748047 34.55334961 -9.33203125 35.18164062 C-11.18236396 36.1957324 -13.08821917 37.10713533 -15 38 C-15.66 37.67 -16.32 37.34 -17 37 C-17 36.34 -17 35.68 -17 35 C-13 33.66666667 -9 32.33333333 -5 31 C-5 30.34 -5 29.68 -5 29 C-4.21625 28.731875 -3.4325 28.46375 -2.625 28.1875 C0.28114923 27.15185568 0.28114923 27.15185568 2 24 C2.29452584 21.61322924 2.4928217 19.21373906 2.625 16.8125 C2.69976562 15.54019531 2.77453125 14.26789063 2.8515625 12.95703125 C2.90054688 11.98121094 2.94953125 11.00539063 3 10 C2.34 10 1.68 10 1 10 C0.63883954 8.5225254 0.28624952 7.04295325 -0.0625 5.5625 C-0.35833984 4.32693359 -0.35833984 4.32693359 -0.66015625 3.06640625 C-0.77230469 2.38449219 -0.88445312 1.70257813 -1 1 C-0.67 0.67 -0.34 0.34 0 0 Z " fill="#312FA4" transform="translate(178,108)"/>
<path d="M0 0 C0.99 0.33 1.98 0.66 3 1 C3 2.32 3 3.64 3 5 C4.32 5.33 5.64 5.66 7 6 C7.33 8.31 7.66 10.62 8 13 C11.40417183 12.60416607 13.72967312 12.16345347 16.6875 10.375 C17.450625 9.92125 18.21375 9.4675 19 9 C19.99 9.33 20.98 9.66 22 10 C20.27843904 11.01303762 18.54738194 12.00994848 16.8125 13 C15.36810547 13.8353125 15.36810547 13.8353125 13.89453125 14.6875 C10.95111257 16.02216758 9.18119943 16.27915461 6 16 C3.54144009 10.73677223 1.43823491 5.63308675 0 0 Z " fill="#3331AE" transform="translate(48,106)"/>
<path d="M0 0 C2.5654594 2.5654594 2.54046087 4.47686668 3 8 C3.99 7.01 4.98 6.02 6 5 C6.99 5.33 7.98 5.66 9 6 C9 6.66 9 7.32 9 8 C9.66 8 10.32 8 11 8 C10.67 9.65 10.34 11.3 10 13 C8.35 13.33 6.7 13.66 5 14 C2.42924159 10.98552165 1.47792934 8.64020229 0.8125 4.75 C0.65394531 3.85796875 0.49539062 2.9659375 0.33203125 2.046875 C0.22246094 1.37140625 0.11289063 0.6959375 0 0 Z " fill="#3131B4" transform="translate(206,68)"/>
<path d="M0 0 C2.68245066 1.93136447 3.17206738 3.79671113 4.203125 6.90625 C4.53828125 7.8859375 4.8734375 8.865625 5.21875 9.875 C5.953125 12.40625 5.953125 12.40625 5.953125 14.40625 C2.078125 12.65625 2.078125 12.65625 0.953125 10.40625 C0.913133 8.40664988 0.90965701 6.40577758 0.953125 4.40625 C0.293125 4.40625 -0.366875 4.40625 -1.046875 4.40625 C-1.046875 3.41625 -1.046875 2.42625 -1.046875 1.40625 C-2.036875 1.40625 -3.026875 1.40625 -4.046875 1.40625 C-4.046875 2.06625 -4.046875 2.72625 -4.046875 3.40625 C-5.696875 3.40625 -7.346875 3.40625 -9.046875 3.40625 C-3.47943879 -1.00930286 -3.47943879 -1.00930286 0 0 Z " fill="#302DAF" transform="translate(171.046875,89.59375)"/>
<path d="M0 0 C0 3.84052912 -0.90767691 5.79177126 -3 9 C-6.1875 9.875 -6.1875 9.875 -9 10 C-9 9.01 -9 8.02 -9 7 C-9.66 6.67 -10.32 6.34 -11 6 C-7.37 4.02 -3.74 2.04 0 0 Z " fill="#3332B7" transform="translate(135,125)"/>
<path d="M0 0 C3.09423168 3.09423168 3.93706005 6.5523812 4.125 10.875 C4.08375 11.57625 4.0425 12.2775 4 13 C-2.07328688 13.50610724 -5.77228537 12.04157942 -11 9 C-8 7 -8 7 -5 7 C-4.67 8.32 -4.34 9.64 -4 11 C-2.02 10.67 -0.04 10.34 2 10 C1.505 8.63875 1.505 8.63875 1 7.25 C0 4 0 4 0 0 Z " fill="#322FA5" transform="translate(73,202)"/>
<path d="M0 0 C2.3125 -0.25 2.3125 -0.25 5 0 C8.24746968 3.49727504 9.02960548 7.23782199 10.15625 11.7578125 C10.87942097 14.34094045 10.87942097 14.34094045 14 16 C11.6875 15.9375 11.6875 15.9375 9 15 C7.17270614 11.54844493 6.10727668 8.36205881 5 4.625 C4.67 3.75875 4.34 2.8925 4 2 C3.01 1.67 2.02 1.34 1 1 C0.67 3.31 0.34 5.62 0 8 C-0.66 8 -1.32 8 -2 8 C-1.125 2.25 -1.125 2.25 0 0 Z " fill="#2D2CA1" transform="translate(51,148)"/>
<path d="M0 0 C0.33 0.66 0.66 1.32 1 2 C0.34 2 -0.32 2 -1 2 C-1 2.66 -1 3.32 -1 4 C-2.32 4 -3.64 4 -5 4 C-5.33 6.64 -5.66 9.28 -6 12 C-6.99 12 -7.98 12 -9 12 C-9.66 10.02 -10.32 8.04 -11 6 C-7.37 4.02 -3.74 2.04 0 0 Z " fill="#3030B8" transform="translate(164,51)"/>
<path d="M0 0 C0.66 0 1.32 0 2 0 C2.33 0.99 2.66 1.98 3 3 C3.99 3.33 4.98 3.66 6 4 C6 3.34 6 2.68 6 2 C9.465 1.505 9.465 1.505 13 1 C9.5494537 3.83188775 5.74037641 5.74503018 1.75 7.6875 C1.1003125 8.00783203 0.450625 8.32816406 -0.21875 8.65820312 C-1.81069757 9.44247141 -3.40510529 10.22174255 -5 11 C-5 10.34 -5 9.68 -5 9 C-4.34 9 -3.68 9 -3 9 C-2.67 8.34 -2.34 7.68 -2 7 C-1.01 7 -0.02 7 1 7 C0.4740625 5.824375 0.4740625 5.824375 -0.0625 4.625 C-0.371875 3.75875 -0.68125 2.8925 -1 2 C-0.67 1.34 -0.34 0.68 0 0 Z " fill="#302FAC" transform="translate(91,176)"/>
<path d="M0 0 C0.33 0.66 0.66 1.32 1 2 C0.01 2.66 -0.98 3.32 -2 4 C-1.68950274 5.43793392 -1.3765224 6.8753318 -1.0625 8.3125 C-0.88847656 9.11300781 -0.71445313 9.91351563 -0.53515625 10.73828125 C-0.00113841 13.145401 -0.00113841 13.145401 1 16 C0.4375 18.125 0.4375 18.125 -1 20 C-4.125 20.75 -4.125 20.75 -7 21 C-5.35 19.35 -3.7 17.7 -2 16 C-2.99 12.37 -3.98 8.74 -5 5 C-3.35 3.35 -1.7 1.7 0 0 Z " fill="#2E2DA2" transform="translate(192,116)"/>
<path d="M0 0 C1.65 0 3.3 0 5 0 C1.66894651 2.66648371 -1.87197848 4.6669681 -5.625 6.6875 C-6.77226562 7.31011719 -7.91953125 7.93273437 -9.1015625 8.57421875 C-12 10 -12 10 -14 10 C-14 9.34 -14 8.68 -14 8 C-13.01 7.67 -12.02 7.34 -11 7 C-9.78130071 4.49552484 -9.78130071 4.49552484 -9 2 C-8.2575 2.185625 -7.515 2.37125 -6.75 2.5625 C-4.05009037 2.99203108 -2.55368923 2.85122974 0 2 C0 1.34 0 0.68 0 0 Z " fill="#2E2EA7" transform="translate(188,71)"/>
<path d="M0 0 C0.66 0.33 1.32 0.66 2 1 C0.515 2.485 0.515 2.485 -1 4 C-0.34 4.66 0.32 5.32 1 6 C0.67 6.66 0.34 7.32 0 8 C-2.5625 8.625 -2.5625 8.625 -5 9 C-5.33 8.01 -5.66 7.02 -6 6 C-6.66 6 -7.32 6 -8 6 C-8 5.34 -8 4.68 -8 4 C-6.71349294 3.30289269 -5.42059335 2.61757124 -4.125 1.9375 C-3.40570313 1.55464844 -2.68640625 1.17179687 -1.9453125 0.77734375 C-1.30335938 0.52082031 -0.66140625 0.26429687 0 0 Z " fill="#3130B4" transform="translate(175,45)"/>
<path d="M0 0 C-2.45334555 1.36396462 -4.91191234 2.71634169 -7.375 4.0625 C-8.42300781 4.64741211 -8.42300781 4.64741211 -9.4921875 5.24414062 C-11.29610184 6.22415178 -13.14583482 7.11875071 -15 8 C-15.66 7.67 -16.32 7.34 -17 7 C-16 5 -16 5 -13 3 C-13.33 2.34 -13.66 1.68 -14 1 C-11.36 1.33 -8.72 1.66 -6 2 C-6 1.34 -6 0.68 -6 0 C-3 -1 -3 -1 0 0 Z " fill="#2D2DAE" transform="translate(124,167)"/>
<path d="M0 0 C1.98 0 3.96 0 6 0 C2.66248862 2.66343273 -0.88101852 4.70475504 -4.625 6.75 C-5.77226562 7.38421875 -6.91953125 8.0184375 -8.1015625 8.671875 C-9.05804688 9.11015625 -10.01453125 9.5484375 -11 10 C-11.66 9.67 -12.32 9.34 -13 9 C-11.7934375 8.319375 -11.7934375 8.319375 -10.5625 7.625 C-7.91143428 6.25274335 -7.91143428 6.25274335 -7 4 C-4.69034152 2.94647157 -2.3570226 1.94280904 0 1 C0 0.67 0 0.34 0 0 Z " fill="#312EAD" transform="translate(151,187)"/>
<path d="M0 0 C-2.12232979 1.17176518 -4.24757791 2.33754785 -6.375 3.5 C-6.97828125 3.83386719 -7.5815625 4.16773438 -8.203125 4.51171875 C-12.7734375 7 -12.7734375 7 -15 7 C-15 6.34 -15 5.68 -15 5 C-14.01 4.67 -13.02 4.34 -12 4 C-11.26676204 1.98491642 -11.26676204 1.98491642 -11 0 C-3.375 -1.125 -3.375 -1.125 0 0 Z " fill="#2D2DAC" transform="translate(147,58)"/>
<path d="M0 0 C1.32 0.66 2.64 1.32 4 2 C3.45018084 8.04801071 2.09570426 13.30601106 0 19 C-0.33 19 -0.66 19 -1 19 C-1 16.69 -1 14.38 -1 12 C-0.34 12 0.32 12 1 12 C0.979375 10.88625 0.95875 9.7725 0.9375 8.625 C1 5 1 5 2 3 C1.34 2.67 0.68 2.34 0 2 C0 1.34 0 0.68 0 0 Z " fill="#3331A6" transform="translate(226,31)"/>
<path d="M0 0 C0 1.98 0 3.96 0 6 C-0.99 6.33 -1.98 6.66 -3 7 C-3.33 6.34 -3.66 5.68 -4 5 C-4.99 4.67 -5.98 4.34 -7 4 C-7.33 4.99 -7.66 5.98 -8 7 C-8.99 6.34 -9.98 5.68 -11 5 C-9.54462432 4.16151196 -8.08559627 3.32936066 -6.625 2.5 C-5.81289062 2.0359375 -5.00078125 1.571875 -4.1640625 1.09375 C-2 0 -2 0 0 0 Z " fill="#3130B2" transform="translate(118,135)"/>
<path d="M0 0 C1.98 0.66 3.96 1.32 6 2 C2.53258866 4.95749791 -0.86873527 7.07848152 -5 9 C-3.50163895 5.88801935 -1.80066242 2.9465385 0 0 Z " fill="#302FB9" transform="translate(121,104)"/>
<path d="M0 0 C0 0.99 0 1.98 0 3 C-3.42797503 5.41974708 -7.23561916 7.15963604 -11 9 C-11.99 9.495 -11.99 9.495 -13 10 C-11.51081373 5.87333926 -9.19156996 4.7026637 -5.375 2.75 C-4.37210938 2.22921875 -3.36921875 1.7084375 -2.3359375 1.171875 C-1.56507812 0.78515625 -0.79421875 0.3984375 0 0 Z " fill="#3130A5" transform="translate(99,86)"/>
<path d="M0 0 C-0.66 1.65 -1.32 3.3 -2 5 C-3.32 4.67 -4.64 4.34 -6 4 C-6.33 4.99 -6.66 5.98 -7 7 C-9.31 7.33 -11.62 7.66 -14 8 C-4.57142857 0 -4.57142857 0 0 0 Z " fill="#2B2EB1" transform="translate(128,71)"/>
<path d="M0 0 C0.66 0 1.32 0 2 0 C2 0.66 2 1.32 2 2 C2.99 1.34 3.98 0.68 5 0 C7.6875 -0.125 7.6875 -0.125 10 0 C7.45368965 2.97069541 4.57769851 4.4775751 1 6 C0.34 5.67 -0.32 5.34 -1 5 C-0.67 3.35 -0.34 1.7 0 0 Z " fill="#2F2FB3" transform="translate(209,153)"/>
<path d="M0 0 C4.62 2.31 9.24 4.62 14 7 C10 8 10 8 8.125 7.3125 C7.42375 6.879375 6.7225 6.44625 6 6 C4.39125 5.01 4.39125 5.01 2.75 4 C1.8425 3.34 0.935 2.68 0 2 C0 1.34 0 0.68 0 0 Z " fill="#2F2CA0" transform="translate(212,23)"/>
<path d="M0 0 C0.33 0 0.66 0 1 0 C1.1953125 6.0546875 1.1953125 6.0546875 1 8 C0.34 8.66 -0.32 9.32 -1 10 C-1.64767793 12.57061311 -1.64767793 12.57061311 -2 15 C-2.66 14.01 -3.32 13.02 -4 12 C-3.3203125 9.08203125 -3.3203125 9.08203125 -2.125 5.8125 C-1.73570313 4.72582031 -1.34640625 3.63914063 -0.9453125 2.51953125 C-0.63335937 1.68808594 -0.32140625 0.85664063 0 0 Z " fill="#3733A1" transform="translate(40,182)"/>
<path d="M0 0 C0.66 0.33 1.32 0.66 2 1 C0.54735962 1.8638129 -0.9123163 2.71580454 -2.375 3.5625 C-3.59316406 4.27599609 -3.59316406 4.27599609 -4.8359375 5.00390625 C-5.55007812 5.33261719 -6.26421875 5.66132812 -7 6 C-7.66 5.67 -8.32 5.34 -9 5 C-8.67 3.68 -8.34 2.36 -8 1 C-7.01 1.33 -6.02 1.66 -5 2 C-3.327767 1.34742127 -1.66072849 0.68132451 0 0 Z " fill="#312DAA" transform="translate(100,81)"/>
<path d="M0 0 C0.66 0.33 1.32 0.66 2 1 C1.67 1.61875 1.34 2.2375 1 2.875 C-0.14193235 4.91018344 -0.14193235 4.91018344 0 7 C-2.475 6.01 -2.475 6.01 -5 5 C-4.1875 3.0625 -4.1875 3.0625 -3 1 C-2.01 0.67 -1.02 0.34 0 0 Z " fill="#3132B9" transform="translate(46,194)"/>
<path d="M0 0 C0.33 0.66 0.66 1.32 1 2 C-2.90102388 4.78644563 -6.38486888 6.68139111 -11 8 C-10 5 -10 5 -7.71484375 3.61328125 C-6.79832031 3.18402344 -5.88179688 2.75476563 -4.9375 2.3125 C-4.01839844 1.87550781 -3.09929687 1.43851563 -2.15234375 0.98828125 C-1.08693359 0.49908203 -1.08693359 0.49908203 0 0 Z " fill="#3230A7" transform="translate(90,149)"/>
<path d="M0 0 C2.45823172 3.68734758 3.01242616 6.69699971 4 11 C2.68 10.34 1.36 9.68 0 9 C0 6.03 0 3.06 0 0 Z " fill="#2929A9" transform="translate(173,93)"/>
<path d="M0 0 C0 3 0 3 -1.125 4.6875 C-3.76459098 6.53521368 -5.85804073 6.20946395 -9 6 C-6.45543849 3.03134491 -3.51005335 1.6380249 0 0 Z " fill="#3532AF" transform="translate(52,73)"/>
<path d="M0 0 C1.32 0.33 2.64 0.66 4 1 C2.54462432 1.83848804 1.08559627 2.67063934 -0.375 3.5 C-1.59316406 4.19609375 -1.59316406 4.19609375 -2.8359375 4.90625 C-5 6 -5 6 -7 6 C-7 5.01 -7 4.02 -7 3 C-3.535 2.505 -3.535 2.505 0 2 C0 1.34 0 0.68 0 0 Z " fill="#2E2CA6" transform="translate(124,67)"/>
<path d="M0 0 C0.66 0.33 1.32 0.66 2 1 C1.27683594 1.50660156 1.27683594 1.50660156 0.5390625 2.0234375 C-0.09257813 2.46945313 -0.72421875 2.91546875 -1.375 3.375 C-2.00148438 3.81585938 -2.62796875 4.25671875 -3.2734375 4.7109375 C-5.12380509 6.02808866 -5.12380509 6.02808866 -7 8 C-7 7.34 -7 6.68 -7 6 C-7.66 5.67 -8.32 5.34 -9 5 C-7.54735962 4.1361871 -6.0876837 3.28419546 -4.625 2.4375 C-3.40683594 1.72400391 -3.40683594 1.72400391 -2.1640625 0.99609375 C-1.44992188 0.66738281 -0.73578125 0.33867188 0 0 Z " fill="#312EA4" transform="translate(74,61)"/>
<path d="M0 0 C2.1519437 3.22791555 2.20086443 4.28400809 2 8 C0.35 8.66 -1.3 9.32 -3 10 C-3 8.68 -3 7.36 -3 6 C-1.68 6 -0.36 6 1 6 C0.67 4.02 0.34 2.04 0 0 Z " fill="#3633A5" transform="translate(224,142)"/>
<path d="M0 0 C0.66 0.33 1.32 0.66 2 1 C1.01 1.33 0.02 1.66 -1 2 C-2.21869929 4.50447516 -2.21869929 4.50447516 -3 7 C-4.32 6.01 -5.64 5.02 -7 4 C-1.7265625 0.77734375 -1.7265625 0.77734375 0 0 Z " fill="#3333AC" transform="translate(83,56)"/>
<path d="M0 0 C1.32 0.33 2.64 0.66 4 1 C-0.95 3.475 -0.95 3.475 -6 6 C-6 5.01 -6 4.02 -6 3 C-5.195625 2.690625 -4.39125 2.38125 -3.5625 2.0625 C-1.10919595 1.23664655 -1.10919595 1.23664655 0 0 Z " fill="#2C2AAB" transform="translate(79,188)"/>
<path d="M0 0 C0.33 0.66 0.66 1.32 1 2 C-3.30769231 5.93846154 -3.30769231 5.93846154 -6.8125 6.25 C-7.534375 6.1675 -8.25625 6.085 -9 6 C-6.45543849 3.03134491 -3.51005335 1.6380249 0 0 Z " fill="#3233A8" transform="translate(100,47)"/>
<path d="M0 0 C0.33 1.32 0.66 2.64 1 4 C-2.67568464 4.91892116 -4.16380575 4.95904856 -8 4 C-5.36 2.68 -2.72 1.36 0 0 Z " fill="#322FB0" transform="translate(192,36)"/>
<path d="M0 0 C-0.33 0.99 -0.66 1.98 -1 3 C-1.804375 3.12375 -2.60875 3.2475 -3.4375 3.375 C-4.7059375 3.684375 -4.7059375 3.684375 -6 4 C-6.33 4.66 -6.66 5.32 -7 6 C-7.99 5.67 -8.98 5.34 -10 5 C-8.71186658 4.16121545 -7.41936744 3.32913217 -6.125 2.5 C-5.40570313 2.0359375 -4.68640625 1.571875 -3.9453125 1.09375 C-2 0 -2 0 0 0 Z " fill="#2A299B" transform="translate(118,173)"/>
<path d="M0 0 C-0.33 1.32 -0.66 2.64 -1 4 C-0.01 4.33 0.98 4.66 2 5 C-0.97 4.67 -3.94 4.34 -7 4 C-2.25 0 -2.25 0 0 0 Z " fill="#2928AE" transform="translate(185,137)"/>
<path d="M0 0 C0.66 0 1.32 0 2 0 C3.7578125 5.95703125 3.7578125 5.95703125 4 8 C3.01 9.485 3.01 9.485 2 11 C0.57741188 7.17679443 -0.24042276 4.08718695 0 0 Z " fill="#3532A5" transform="translate(41,80)"/>
<path d="M0 0 C0.33 1.32 0.66 2.64 1 4 C-3.75 3.25 -3.75 3.25 -6 1 C-3 0 -3 0 0 0 Z " fill="#3331B3" transform="translate(68,209)"/>
<path d="M0 0 C1.11375 0.1546875 1.11375 0.1546875 2.25 0.3125 C-0.27956528 3.4041909 -2.97454612 4.22181332 -6.75 5.3125 C-3.42692308 0.38942308 -3.42692308 0.38942308 0 0 Z " fill="#312FA5" transform="translate(110.75,74.6875)"/>
<path d="M0 0 C0.66 1.32 1.32 2.64 2 4 C1.401875 3.814375 0.80375 3.62875 0.1875 3.4375 C-2.16408762 2.77906313 -2.16408762 2.77906313 -5 4 C-5 3.01 -5 2.02 -5 1 C-3 0 -3 0 0 0 Z " fill="#2A29BB" transform="translate(155,36)"/>
</svg>
